HIERARCHY
ROOT Hips
{
  OFFSET -35.2597 29.1586 114.425
  CHANNELS 6 Xposition Yposition Zposition Zrotation Xrotation Yrotation
  JOINT LeftUpLeg
  {
    OFFSET 8.64259 1.95398 -2.38835
    CHANNELS 3 Zrotation Xrotation Yrotation
    JOINT LeftLeg
    {
      OFFSET 43.7702 0 0
      CHANNELS 3 Zrotation Xrotation Yrotation
      JOINT LeftFoot
      {
        OFFSET 40.6238 0 0
        CHANNELS 3 Zrotation Xrotation Yrotation
        JOINT LeftToeBase
        {
          OFFSET 12.7242 0 0
          CHANNELS 3 Zrotation Xrotation Yrotation
          End Site
          {
            OFFSET 0 0 0
          }
        }
      }
    }
  }
  JOINT RightUpLeg
  {
    OFFSET -8.2249 1.95398 -2.59336
    CHANNELS 3 Zrotation Xrotation Yrotation
    JOINT RightLeg
    {
      OFFSET 43.5653 0 0
      CHANNELS 3 Zrotation Xrotation Yrotation
      JOINT RightFoot
      {
        OFFSET 40.6238 0 0
        CHANNELS 3 Zrotation Xrotation Yrotation
        JOINT RightToeBase
        {
          OFFSET 12.7242 0 0
          CHANNELS 3 Zrotation Xrotation Yrotation
          End Site
          {
            OFFSET 0 0 0
          }
        }
      }
    }
  }
  JOINT Spine
  {
    OFFSET 0.165834 0.87714 6.61349
    CHANNELS 3 Zrotation Xrotation Yrotation
    JOINT Spine1
    {
      OFFSET 7.38963 1.71661e-005 0
      CHANNELS 3 Zrotation Xrotation Yrotation
      JOINT Spine2
      {
        OFFSET 11.9445 1.14441e-005 0
        CHANNELS 3 Zrotation Xrotation Yrotation
        JOINT Spine3
        {
          OFFSET 14.7254 4.19617e-005 0
          CHANNELS 3 Zrotation Xrotation Yrotation
          JOINT Spine4
          {
            OFFSET 10.9679 0 0
            CHANNELS 3 Zrotation Xrotation Yrotation
            JOINT RightShoulder
            {
              OFFSET 2.46616 -1.6653 3.69651
              CHANNELS 3 Zrotation Xrotation Yrotation
              JOINT RightArm
              {
                OFFSET 13.0012 0 0
                CHANNELS 3 Zrotation Xrotation Yrotation
                JOINT RightForeArm
                {
                  OFFSET 28.7848 1.62311e-005 0
                  CHANNELS 3 Zrotation Xrotation Yrotation
                  JOINT RightHand
                  {
                    OFFSET 26.5688 1.62095e-005 0
                    CHANNELS 3 Zrotation Xrotation Yrotation
                    End Site
                    {
                      OFFSET 0 0 0
                    }
                  }
                }
              }
            }
            JOINT LeftShoulder
            {
              OFFSET 2.38034 -1.29275 -3.7523
              CHANNELS 3 Zrotation Xrotation Yrotation
              JOINT LeftArm
              {
                OFFSET 16.3182 6.07031e-005 0
                CHANNELS 3 Zrotation Xrotation Yrotation
                JOINT LeftForeArm
                {
                  OFFSET 27.0901 0 0
                  CHANNELS 3 Zrotation Xrotation Yrotation
                  JOINT LeftHand
                  {
                    OFFSET 24.5451 1.51738e-005 0
                    CHANNELS 3 Zrotation Xrotation Yrotation
                    End Site
                    {
                      OFFSET 0 0 0
                    }
                  }
                }
              }
            }
            JOINT Neck
            {
              OFFSET 5.0226 -0.0266342 0
              CHANNELS 3 Zrotation Xrotation Yrotation
              JOINT Head
              {
                OFFSET 6.69364 2.86102e-005 0
                CHANNELS 3 Zrotation Xrotation Yrotation
                End Site
                {
                  OFFSET 0 0 0
                }
              }
            }
          }
        }
      }
    }
  }
}
MOTION
Frames:	7
Frame Time:	0.0416667
-256.661 99.0363 -240.956 -100.481 -57.0991 -98.7626 -174.595 -3.69606 90.3547 -15.2173 7.26953 1.32849 69.571 5.98904 -1.10422 28.805 1.59768 -3.3326 173.388 -3.56513 88.9586 -13.4446 -11.577 -0.470572 67.2137 -5.31736 -0.186539 22.9858 0.278588 6.28437 0.38058 7.86009 -90.4395 11.1552 0.553357 -0.928725 -0.515982 0.511962 -0.952196 -23.0503 0.806897 -0.719495 -3.03768 0.806899 -0.719504 88.2958 -35.2955 -108.004 42.4042 8.16412 -3.67866 -4.69531 -31.9357 -5.13968 -18.9963 3.72485 -27.9856 -86.6499 -58.4091 84.9843 -23.9038 -13.4495 -13.2672 3.36491 36.1964 -4.4363 5.89008 -1.01078 -17.0592 0.987301 11.3455 0.199794 -7.09269 11.0584 2.83091 
-256.819 98.8773 -240.95 -99.2285 -57.137 -97.5904 -174.115 -2.23792 90.7995 -16.8195 7.52467 0.814923 70.4709 6.64829 -1.20344 29.4239 1.83131 -3.23412 173.591 -2.53884 89.2277 -14.1977 -11.4721 -0.44418 67.3815 -5.51337 -0.380442 23.6388 0.0339206 6.29684 0.384535 7.8146 -90.5095 11.2461 0.528256 -1.06651 -0.425228 0.480811 -1.08872 -22.9588 0.824352 -0.858454 -2.94612 0.824355 -0.858461 88.3619 -35.0543 -107.973 42.4363 8.04329 -4.14115 -4.69692 -31.9785 -5.1402 -20.535 3.75378 -26.3867 -86.9413 -59.5216 84.7383 -23.841 -13.3984 -14.6938 3.4512 38.0067 -4.52275 8.11068 -1.08102 -15.105 1.10114 11.4292 0.799972 -6.8296 11.0529 2.87005 
-256.797 98.6776 -240.56 -98.8191 -57.1146 -97.4013 -174.323 -1.7585 90.4058 -17.9046 7.13637 0.797481 70.9394 7.32953 -0.850491 30.7219 2.14039 -2.62873 173.518 -1.6083 88.9672 -15.9644 -11.4421 -0.555655 68.1052 -5.79849 -0.0995347 24.4175 -0.168141 6.04651 0.362405 7.82711 -90.5124 11.2207 0.483012 -1.06742 -0.450575 0.435559 -1.08765 -22.9839 0.781468 -0.872936 -2.97125 0.781479 -0.872935 88.5214 -34.8937 -107.741 42.8177 7.71841 -4.85406 -4.68536 -31.7525 -5.13533 -21.4286 3.68509 -25.1092 -86.8655 -59.2721 84.8069 -23.9428 -13.3154 -15.3016 3.49735 38.826 -4.57036 8.13527 -1.19022 -16.2911 1.66311 11.4165 0.712736 -7.30487 11.03 2.95089 
-256.428 98.2674 -240.196 -98.1575 -57.944 -97.1561 -174.31 0.0381221 89.9991 -20.7689 7.14648 0.39257 72.25 8.92072 -0.947059 31.5228 2.47522 -2.56768 172.813 0.213587 88.0049 -19.1309 -11.875 -0.208496 69.6591 -6.38971 -0.467561 24.4281 -0.0451049 5.66295 0.351495 7.88241 -90.5979 11.1097 0.422157 -1.23081 -0.561754 0.367583 -1.24821 -23.0938 0.772533 -1.04706 -3.08119 0.772533 -1.04707 89.7791 -33.6884 -105.833 43.6951 7.02293 -6.16386 -4.71534 -32.3137 -5.14816 -21.542 3.34803 -23.2158 -87.4715 -59.5451 84.0232 -24.5786 -12.9024 -16.894 3.55497 39.9411 -4.62827 7.66865 -1.13461 -16.2053 2.53078 11.0188 1.15115 -7.16924 10.5385 3.17332 
-255.726 97.6788 -240.058 -98.0538 -58.3735 -96.2658 -173.281 3.45727 90.6815 -26.6718 8.99786 -0.318371 73.0843 10.1703 1.41664 32.5659 2.90287 -2.47314 172.65 1.95238 88.3408 -22.1647 -11.2874 0.202432 70.615 -6.69781 -0.239038 25.6878 -0.552056 5.78806 0.331737 7.94972 -90.8164 10.9737 0.282458 -1.65111 -0.698318 0.209509 -1.66193 -23.2266 0.765578 -1.48994 -3.21391 0.765571 -1.48995 89.9173 -33.0121 -105.813 42.8102 7.40202 -6.1835 -4.788 -33.6472 -5.18051 -21.695 3.34285 -23.0641 -87.6861 -60.0774 83.8108 -25.5881 -12.3655 -17.2788 3.49484 38.8388 -4.56734 11.1408 -1.46653 -15.9456 2.95244 10.7768 1.55835 -6.636 10.211 3.64787 
-254.723 97.1616 -239.883 -96.3155 -58.0049 -94.4076 -171.665 8.59608 90.8838 -33.9398 5.94102 -1.65802 73.0395 9.40192 0.385406 31.6276 2.78349 -3.17005 172.259 4.84868 87.8908 -25.2805 -12.9368 0.4981 70.7806 -6.88546 -0.312467 27.2936 -0.952625 5.1659 0.337341 7.98297 -90.924 10.9066 0.244333 -1.86107 -0.765698 0.162211 -1.87003 -23.2917 0.792291 -1.70168 -3.2791 0.792304 -1.70168 90.3393 -32.5884 -105.156 42.808 7.25968 -6.77636 -4.68306 -31.7106 -5.13446 -22.0805 4.03223 -26.2961 -87.5605 -59.9258 83.9579 -24.9461 -12.639 -18.0246 3.7752 43.5662 -4.85191 10.1045 -1.55721 -17.7058 4.39968 10.9012 0.976702 -6.93995 10.355 4.3363 
-253.534 96.4754 -239.605 -94.6748 -57.5802 -92.9561 -169.156 13.8468 91.1303 -41.0139 2.22585 -3.55246 72.999 9.01201 0.947891 32.3885 2.43294 -1.53829 170.997 8.09125 86.7278 -28.8683 -14.9676 1.20666 71.7088 -7.72298 -0.406295 28.103 -1.20317 4.97887 0.288562 8.0614 -91.069 10.7469 0.0817717 -2.13312 -0.925835 -0.0121738 -2.13466 -23.4482 0.718964 -2.01002 -3.43552 0.718955 -2.01003 90.6397 -32.1409 -104.731 41.6607 7.52842 -7.78728 -4.70183 -32.0618 -5.14236 -22.6911 4.07913 -25.9227 -88.0295 -59.8532 83.3144 -25.4299 -12.3811 -18.1308 3.90135 45.4948 -4.97943 12.1736 -1.73329 -17.2445 6.63616 11.1642 1.14943 -8.17797 10.4913 4.37497 
